<?xml version="1.0" encoding="utf-8"?>
<svg xmlns:dc="http://purl.org/dc/elements/1.1/" xmlns:cc="http://creativecommons.org/ns#" xmlns:rdf="http://www.w3.org/1999/02/22-rdf-syntax-ns#" xmlns:svg="http://www.w3.org/2000/svg" xmlns="http://www.w3.org/2000/svg" width="63mm" height="88mm" viewBox="0 0 238.11099 332.59947" version="1.1">
  <metadata>
    <rdf:RDF>
      <cc:Work rdf:about="">
        <dc:format>image/svg+xml</dc:format>
        <dc:type rdf:resource="http://purl.org/dc/dcmitype/StillImage" />
        <dc:title>Vector Playing Cards</dc:title>
        <dc:creator>
          <cc:Agent>
            <dc:title>Chris Aguilar</dc:title>
          </cc:Agent>
        </dc:creator>
        <dc:rights>
          <cc:Agent>
            <dc:title>Copyright 2011, 017</dc:title>
          </cc:Agent>
        </dc:rights>
        <dc:publisher>
          <cc:Agent>
            <dc:title>Chris Aguilar</dc:title>
          </cc:Agent>
        </dc:publisher>
        <dc:description>Vector Playing Cards</dc:description>
        <dc:contributor>
          <cc:Agent>
            <dc:title>Chris Aguilar</dc:title>
          </cc:Agent>
        </dc:contributor>
        <cc:license rdf:resource="https://opensource.org/licenses/lgpl-3.0.html" />
      </cc:Work>
    </rdf:RDF>
  </metadata>
  <g transform="translate(-312.06162,-1075.6353)">
    <g transform="matrix(1.06667,0,0,1.06667,-1872.89,1108.11)">
      <rect y="-30.444927" x="2048.3857" height="311.81104" width="223.22835" rx="10.677597" ry="10.66401" fill="#ffffff" />
      <path d="m 2065.6031,39.528358 c -2.1609,-3.568597 -4.4344,-7.037098 -7.2754,-9.999997 2.841,-2.962801 5.1145,-6.4313 7.2754,-10 2.1609,3.5687 4.4343,7.037199 7.2754,10 -2.8411,2.962899 -5.1145,6.4314 -7.2754,9.999997 z" fill="#c8102e" />
      <path d="m 2211.7664,50.24996 c -5.1862,-8.5648 -10.6425,-16.8891 -17.461,-24 6.8185,-7.1108 12.2748,-15.4351 17.461,-24 5.1862,8.5649 10.6424,16.8892 17.4609,24 -6.8185,7.1109 -12.2747,15.4352 -17.4609,24 z" fill="#c8102e" />
      <path d="m 2254.3976,231.393 c -2.1609,-3.5686 -4.4344,-7.0371 -7.2754,-10 2.841,-2.9628 5.1145,-6.4313 7.2754,-10 2.1609,3.5687 4.4343,7.0372 7.2754,10 -2.8411,2.9629 -5.1145,6.4314 -7.2754,10 z" fill="#c8102e" />
      <path d="m 2108.2336,50.24996 c -5.1862,-8.5648 -10.6425,-16.8891 -17.461,-24 6.8185,-7.1108 12.2748,-15.4351 17.461,-24 5.1862,8.5649 10.6424,16.8892 17.4609,24 -6.8185,7.1109 -12.2747,15.4352 -17.4609,24 z" fill="#c8102e" />
      <path d="m 2160,99.83912 c -5.1862,-8.5648 -10.6425,-16.88911 -17.461,-24 6.8185,-7.110804 12.2748,-15.435104 17.461,-24.000003 5.1862,8.564899 10.6424,16.889199 17.4609,24.000003 -6.8185,7.11089 -12.2747,15.4352 -17.4609,24 z" fill="#c8102e" />
      <path d="m 2108.2336,149.42827 c -5.1862,-8.5648 -10.6425,-16.8891 -17.461,-24 6.8185,-7.1108 12.2748,-15.4351 17.461,-24 5.1862,8.5649 10.6424,16.8892 17.4609,24 -6.8185,7.1109 -12.2747,15.4352 -17.4609,24 z" fill="#c8102e" />
      <path d="m 2211.7664,149.44384 c -5.1862,-8.5648 -10.6425,-16.8891 -17.461,-24 6.8185,-7.1108 12.2748,-15.4351 17.461,-24 5.1862,8.5649 10.6424,16.8892 17.4609,24 -6.8185,7.1109 -12.2747,15.4352 -17.4609,24 z" fill="#c8102e" />
      <path d="m 2108.2336,248.67634 c -5.1862,-8.5648 -10.6425,-16.8891 -17.461,-24 6.8185,-7.1108 12.2748,-15.4351 17.461,-24 5.1862,8.5649 10.6424,16.8892 17.4609,24 -6.8185,7.1109 -12.2747,15.4352 -17.4609,24 z" fill="#c8102e" />
      <path d="m 2211.7664,248.68328 c -5.1862,-8.5648 -10.6425,-16.8891 -17.461,-24 6.8185,-7.1108 12.2748,-15.4351 17.461,-24 5.1862,8.5649 10.6424,16.8892 17.4609,24 -6.8185,7.1109 -12.2747,15.4352 -17.4609,24 z" fill="#c8102e" />
      <path d="m 2060.5289,16.3892 c 2.1703,-11.4733 4.4806,-20.0867 10.5465,-29.4347 h -12.3297 v 4.0238 h -3.2734 v -7.5855 h 18.0343 l 2.2243,3.5617 c -6.4426,7.0329 -12.3388,29.7673 -11.2948,29.4347 z m 0,0" fill="#c8102e" />
      <path d="m 2259.4688,234.5321 c -2.1703,11.4732 -4.4806,20.0867 -10.5465,29.4347 h 12.3297 v -4.0239 h 3.2734 v 7.5856 h -18.0343 l -2.2243,-3.5617 c 6.4426,-7.0329 12.3388,-29.7673 11.2948,-29.4347 z m 0,0" fill="#c8102e" />
    </g>
  </g>
</svg>