<?xml version="1.0" encoding="utf-8"?>
<svg xmlns:dc="http://purl.org/dc/elements/1.1/" xmlns:cc="http://creativecommons.org/ns#" xmlns:rdf="http://www.w3.org/1999/02/22-rdf-syntax-ns#" xmlns:svg="http://www.w3.org/2000/svg" xmlns="http://www.w3.org/2000/svg" width="63mm" height="88mm" viewBox="0 0 238.11099 332.59947" version="1.1">
  <metadata>
    <rdf:RDF>
      <cc:Work rdf:about="">
        <dc:format>image/svg+xml</dc:format>
        <dc:type rdf:resource="http://purl.org/dc/dcmitype/StillImage" />
        <dc:title>Vector Playing Cards</dc:title>
        <dc:creator>
          <cc:Agent>
            <dc:title>Chris Aguilar</dc:title>
          </cc:Agent>
        </dc:creator>
        <dc:rights>
          <cc:Agent>
            <dc:title>Copyright 2011, 017</dc:title>
          </cc:Agent>
        </dc:rights>
        <dc:publisher>
          <cc:Agent>
            <dc:title>Chris Aguilar</dc:title>
          </cc:Agent>
        </dc:publisher>
        <dc:description>Vector Playing Cards</dc:description>
        <dc:contributor>
          <cc:Agent>
            <dc:title>Chris Aguilar</dc:title>
          </cc:Agent>
        </dc:contributor>
        <cc:license rdf:resource="https://opensource.org/licenses/lgpl-3.0.html" />
      </cc:Work>
    </rdf:RDF>
  </metadata>
  <g transform="translate(-1176.3967,-1075.6348)">
    <g transform="matrix(1.06667,0,0,1.06667,-1854.08,1108.11)">
      <g transform="translate(2580.63,-400.721)">
        <rect ry="10.66401" rx="10.677597" width="223.22835" height="311.81104" x="260.43304" y="370.27557" fill="#ffffff" />
      </g>
      <path d="m 2858.2785,39.5284 c -2.1609,-3.5686 -4.4344,-7.0371 -7.2754,-10 2.841,-2.9628 5.1145,-6.4313 7.2754,-10 2.1609,3.5687 4.4343,7.0372 7.2754,10 -2.8411,2.9629 -5.1145,6.4314 -7.2754,10 z" fill="#c8102e" />
      <path d="m 3004.4418,50.25 c -5.1863,-8.5648 -10.6425,-16.8891 -17.461,-24 6.8185,-7.1108 12.2748,-15.4351 17.461,-24 5.1862,8.5649 10.6424,16.8892 17.4609,24 -6.8185,7.1109 -12.2747,15.4352 -17.4609,24 z" fill="#c8102e" />
      <path d="m 3047.073,231.393 c -2.1609,-3.5686 -4.4344,-7.0371 -7.2754,-10 2.841,-2.9628 5.1145,-6.4313 7.2754,-10 2.1609,3.5687 4.4343,7.0372 7.2754,10 -2.8411,2.9629 -5.1145,6.4314 -7.2754,10 z" fill="#c8102e" />
      <path d="m 2900.909,50.25 c -5.1862,-8.5648 -10.6425,-16.8891 -17.461,-24 6.8185,-7.1108 12.2748,-15.4351 17.461,-24 5.1862,8.5649 10.6424,16.8892 17.4609,24 -6.8185,7.1109 -12.2747,15.4352 -17.4609,24 z" fill="#c8102e" />
      <path d="m 3004.4418,116.3975 c -5.1863,-8.5648 -10.6425,-16.8891 -17.461,-24 6.8185,-7.1108 12.2748,-15.4351 17.461,-24.0001 5.1862,8.565 10.6424,16.8893 17.4609,24.0001 -6.8185,7.1109 -12.2747,15.4352 -17.4609,24 z" fill="#c8102e" />
      <path d="m 2900.909,116.3975 c -5.1862,-8.5648 -10.6425,-16.8891 -17.461,-24 6.8185,-7.1108 12.2748,-15.4351 17.461,-24 5.1862,8.5649 10.6424,16.8892 17.4609,24 -6.8185,7.1109 -12.2747,15.4352 -17.4609,24 z" fill="#c8102e" />
      <path d="m 2952.6754,83.3202 c -5.1863,-8.5648 -10.6425,-16.8891 -17.461,-24 6.8185,-7.1108 12.2747,-15.4351 17.461,-24 5.1862,8.5649 10.6424,16.8892 17.4609,24 -6.8185,7.1109 -12.2747,15.4352 -17.4609,24 z" fill="#c8102e" />
      <path d="m 2900.909,248.6763 c -5.1862,-8.5648 -10.6425,-16.8891 -17.461,-24 6.8185,-7.1108 12.2748,-15.4351 17.461,-24 5.1862,8.5649 10.6424,16.8892 17.4609,24 -6.8185,7.1109 -12.2747,15.4352 -17.4609,24 z" fill="#c8102e" />
      <path d="m 3004.4418,248.6833 c -5.1863,-8.5648 -10.6425,-16.8891 -17.461,-24 6.8185,-7.1108 12.2748,-15.4351 17.461,-24 5.1862,8.5649 10.6424,16.8892 17.4609,24 -6.8185,7.1109 -12.2747,15.4352 -17.4609,24 z" fill="#c8102e" />
      <path d="m 3004.4418,182.5295 c -5.1863,-8.5648 -10.6425,-16.8891 -17.461,-24 6.8185,-7.1108 12.2748,-15.4351 17.461,-24 5.1862,8.5649 10.6424,16.8892 17.4609,24 -6.8185,7.1109 -12.2747,15.4352 -17.4609,24 z" fill="#c8102e" />
      <path d="m 2900.909,182.4973 c -5.1862,-8.5648 -10.6425,-16.8891 -17.461,-24 6.8185,-7.1108 12.2748,-15.4351 17.461,-24 5.1862,8.5649 10.6424,16.8892 17.4609,24 -6.8185,7.1109 -12.2747,15.4352 -17.4609,24 z" fill="#c8102e" />
      <path d="m 2952.6754,215.6011 c -5.1863,-8.5648 -10.6425,-16.8891 -17.461,-24 6.8185,-7.1108 12.2748,-15.4351 17.461,-24 5.1862,8.5649 10.6424,16.8892 17.4609,24 -6.8185,7.1109 -12.2747,15.4352 -17.4609,24 z" fill="#c8102e" />
      <g transform="matrix(1,0,0,0.99998,1809.68,-538.726)">
        <path d="m 1038.5828,555.12975 v -33 h 3.1988 v 33 z m 0,0" fill="#c8102e" />
        <path d="m 1051.2635,522.1291 c -3.0793,0 -5.5542,2.81264 -5.5542,6.30617 v 20.38896 c 0,3.49354 2.4762,6.30487 5.5542,6.30487 h 1.7974 c 3.0792,0 5.5593,-2.81133 5.5593,-6.30487 v -20.38896 c 0,-3.49353 -2.4814,-6.30617 -5.5593,-6.30617 z m 0.9295,3.12035 c 1.818,0 3.2798,1.39453 3.2798,3.13868 v 20.65871 c 0,1.74415 -1.4618,3.15177 -3.2798,3.15177 -1.8179,0 -3.2849,-1.40762 -3.2849,-3.15177 v -20.65871 c 0,-1.74284 1.467,-3.13868 3.2849,-3.13868 z m 0,0" fill="#c8102e" />
      </g>
      <g transform="matrix(-1,0,0,-0.99998,4095.67,789.647)">
        <path d="m 1038.5828,555.12975 v -33 h 3.1988 v 33 z m 0,0" fill="#c8102e" />
        <path d="m 1051.2635,522.1291 c -3.0793,0 -5.5542,2.81264 -5.5542,6.30617 v 20.38896 c 0,3.49354 2.4762,6.30487 5.5542,6.30487 h 1.7974 c 3.0792,0 5.5593,-2.81133 5.5593,-6.30487 v -20.38896 c 0,-3.49353 -2.4814,-6.30617 -5.5593,-6.30617 z m 0.9295,3.12035 c 1.818,0 3.2798,1.39453 3.2798,3.13868 v 20.65871 c 0,1.74415 -1.4618,3.15177 -3.2798,3.15177 -1.8179,0 -3.2849,-1.40762 -3.2849,-3.15177 v -20.65871 c 0,-1.74284 1.467,-3.13868 3.2849,-3.13868 z m 0,0" fill="#c8102e" />
      </g>
    </g>
  </g>
</svg>