<?xml version="1.0" encoding="utf-8"?>
<svg xmlns:dc="http://purl.org/dc/elements/1.1/" xmlns:cc="http://creativecommons.org/ns#" xmlns:rdf="http://www.w3.org/1999/02/22-rdf-syntax-ns#" xmlns:svg="http://www.w3.org/2000/svg" xmlns="http://www.w3.org/2000/svg" width="63mm" height="88mm" viewBox="0 0 238.11099 332.59947" version="1.1">
  <metadata>
    <rdf:RDF>
      <cc:Work rdf:about="">
        <dc:format>image/svg+xml</dc:format>
        <dc:type rdf:resource="http://purl.org/dc/dcmitype/StillImage" />
        <dc:title>Vector Playing Cards</dc:title>
        <dc:creator>
          <cc:Agent>
            <dc:title>Chris Aguilar</dc:title>
          </cc:Agent>
        </dc:creator>
        <dc:rights>
          <cc:Agent>
            <dc:title>Copyright 2011, 017</dc:title>
          </cc:Agent>
        </dc:rights>
        <dc:publisher>
          <cc:Agent>
            <dc:title>Chris Aguilar</dc:title>
          </cc:Agent>
        </dc:publisher>
        <dc:description>Vector Playing Cards</dc:description>
        <dc:contributor>
          <cc:Agent>
            <dc:title>Chris Aguilar</dc:title>
          </cc:Agent>
        </dc:contributor>
        <cc:license rdf:resource="https://opensource.org/licenses/lgpl-3.0.html" />
      </cc:Work>
    </rdf:RDF>
  </metadata>
  <g transform="translate(1416.6041,-1075.6353)">
    <g transform="matrix(1.06667,0,0,1.06667,-1910.51,1108.11)">
      <rect y="-30.444927" x="463.03534" height="311.81104" width="223.22835" rx="10.677597" ry="10.66401" fill="#ffffff" />
      <path d="m 480.2527,39.5283 c -2.161,-3.5686 -4.4344,-7.0371 -7.2754,-10 2.841,-2.9628 5.1144,-6.4313 7.2754,-10 2.1609,3.5687 4.4343,7.0372 7.2753,10 -2.841,2.9629 -5.1144,6.4314 -7.2753,10 z" fill="#c8102e" />
      <path d="m 669.04725,231.3929 c -2.161,-3.5686 -4.4344,-7.0371 -7.2754,-10 2.841,-2.9628 5.1144,-6.4313 7.2754,-10 2.1609,3.5687 4.4343,7.0372 7.2753,10 -2.841,2.9629 -5.1144,6.4314 -7.2753,10 z" fill="#c8102e" />
      <path d="m 574.6495,149.4606 c -5.1862,-8.5648 -10.6424,-16.8891 -17.4609,-24 6.8185,-7.1108 12.2747,-15.4351 17.4609,-24 5.1863,8.5649 10.6425,16.8892 17.461,24 -6.8185,7.1109 -12.2747,15.4352 -17.461,24 z" fill="#c8102e" />
      <path d="m 470.15911,16.3928 v -2.8217 h 2.6923 l 5.7354,-30.1783 h 3.2644 l 6.3179,30.1783 h 2.1741 v 2.8217 h -7.4082 v -2.8217 h 1.9993 l -0.7984,-4.6247 h -7.4737 l -0.5773,4.6247 h 1.9992 v 2.8217 z m 13.3391,-10.7407 -3.249,-16.1524 -3.0432,16.1524 z m 0,0" fill="#c8102e" />
      <path d="m 658.95364,234.5284 v 2.8217 h 2.6923 l 5.7354,30.1783 h 3.2644 l 6.3179,-30.1783 h 2.1741 v -2.8217 h -7.4082 v 2.8217 h 1.9993 l -0.7984,4.6246 h -7.4737 l -0.5773,-4.6246 h 1.9992 v -2.8217 z m 13.3391,10.7407 -3.249,16.1524 -3.0432,-16.1524 z m 0,0" fill="#c8102e" />
    </g>
  </g>
</svg>